<?xml version="1.0" encoding="UTF-8"?>
<svg viewBox="0 0 64 64" xmlns="http://www.w3.org/2000/svg">
 <path d="m14.891 56.087c-3.4305-8.1806 1.7682-17.011 8.3766-21.386l1.0196-0.55426-0.60477-0.56154c-4.4143-5.3086-2.9938-12.318 3.0485-15.438-1.1094-1.8263-1.4668-3.6802-1.0569-5.8048 0.86223-3.1406 3.5135-4.2877 6.3702-4.5397 2.9325 0.11981 5.2123 1.634 6.2284 4.5397 0.6476 2.1284-0.14233 3.9598-1.0569 5.8048 6.6996 3.1494 6.6972 9.8651 3.0485 15.438l-0.60476 0.56154c6.983 3.8331 13.204 13.726 9.3618 21.947-0.35904 0.14221-33.791 0.13606-34.13-0.00628z" fill="#fff" stroke="#000" stroke-width="2"/>
</svg>
